# xmcd
#
# Track frame offsets:
#	150
#	18600
#	35232
#	54450
#	70125
#	86000
#	102225
#	120075
#	150675
#	168175
#	188137
#	209137
#	222600
#	236962
#
# Disc length: 3350 seconds
#
# Revision: 0
# Processed by: cddbd v1.5.2PL0 Copyright (c) Steve Scherf et al.
# Submitted via: audiograbber 1.83.01
#
DISCID=cc0d140e
DTITLE=Western Union - Greatest Hits Live
DYEAR=1986
DGENRE=Country
TTITLE0=Ich m cht' so gerne mal nach Nashville
TTITLE1=Dieselcowboys und Country Music
TTITLE2=Gott, ich hoff der Tag wird gut
TTITLE3=Auf der Autobahn
TTITLE4=Wer glaubst Du wer Du bist
TTITLE5=Unser Lied im Radio
TTITLE6=Bi-Ba-Baby
TTITLE7=Transit Cowboy
TTITLE8=Eigentlich brauch ich nur Dich
TTITLE9=B renstark
TTITLE10=Der liebe Gott der muss'n Cowboy sein
TTITLE11=Oh lonesome me
TTITLE12=Tulsa time
TTITLE13=Gimme gimme hust one more chance
EXTD=
EXTT0=
EXTT1=
EXTT2=
EXTT3=
EXTT4=
EXTT5=
EXTT6=
EXTT7=
EXTT8=
EXTT9=
EXTT10=
EXTT11=
EXTT12=
EXTT13=
PLAYORDER=
